<?xml version="1.0" encoding="utf-8"?>
<!-- Generator: Adobe Illustrator 15.1.0, SVG Export Plug-In  -->
<!DOCTYPE svg PUBLIC "-//W3C//DTD SVG 1.1//EN" "http://www.w3.org/Graphics/SVG/1.1/DTD/svg11.dtd" [
	<!ENTITY ns_flows "http://ns.adobe.com/Flows/1.0/">
]>
<svg version="1.1"
	 xmlns="http://www.w3.org/2000/svg" xmlns:xlink="http://www.w3.org/1999/xlink" xmlns:a="http://ns.adobe.com/AdobeSVGViewerExtensions/3.0/"
	 x="0px" y="0px" width="257px" height="257px" viewBox="-3.877 -2.955 257 257"
	 overflow="visible" enable-background="new -3.877 -2.955 257 257" xml:space="preserve">
<defs>
</defs>
<g>
	<circle fill="#DEDC00" cx="124.79" cy="124.837" r="115"/>
	<g>
		<path fill="#006633" d="M229.787,124.765c-0.258,43.05-27.026,82.893-67.458,98.218c-41.666,15.792-88.518,3.165-117.608-30.167
			c-28.707-32.892-32.458-82.167-11.228-119.881c21.222-37.7,65.303-58.795,107.984-51.833
			C192.005,29.342,229.481,73.806,229.787,124.765c0.078,12.911,20.082,13.032,20.005,0.145
			c-0.282-46.932-26.901-90.623-68.92-111.793C138.638-8.162,86.043-3.277,48.679,25.776C10.685,55.32-6.925,103.633,2.501,150.768
			c9.11,45.553,45.29,82.562,89.726,94.784c37.082,10.2,78.356,1.919,108.673-21.655c30.587-23.784,48.658-60.19,48.891-98.988
			C249.869,111.99,229.865,111.884,229.787,124.765z"/>
	</g>
</g>
<g>
	<g>
		<path d="M65.207,129.639c8.316,15.776,13.05,33.114,15.698,50.692c0.826,5.479,1.302,11.557,1.458,17.415
			c0.097,3.613-0.585,7.368,0.108,10.931c1.483,7.616,11.708,9.527,16.769,4.446c2.793-2.804,3.066-6.843,3.809-10.497
			c1.264-6.224,2.689-12.413,4.258-18.566c4.243-16.649,9.015-34.758,19.294-48.793c10.057-13.732,24.878-23.819,39.734-31.628
			c6.959-3.658,14.088-7.057,21.45-9.826c3.446-1.296,6.965-2.398,10.557-3.212c0.666-0.144,1.335-0.27,2.008-0.378
			c-1.097,0.13-1.079,0.146,0.052,0.05c0.528-0.027,1.057-0.027,1.585,0.001c-2.344-0.064,0.562,0.61-1.861-0.575
			c11.531,5.636,21.608-11.646,10-17.32c-6.512-3.183-13.464-2.108-20.232-0.281c-8.906,2.404-17.491,6.375-25.793,10.333
			c-17.703,8.439-33.942,19.194-47.333,33.654c-13.769,14.869-20.424,33.658-26.047,52.799c-2.329,7.928-4.29,15.965-6.039,24.04
			c-0.74,3.413-1.045,7.199-2.18,10.508c0.846-1.464,1.691-2.929,2.537-4.394c-0.006,0.006-0.012,0.012-0.018,0.018
			c5.59,1.482,11.179,2.964,16.769,4.446c0.869,4.459,0.428,1.739,0.53-0.019c0.125-2.148,0.082-4.307,0.024-6.456
			c-0.196-7.326-1.081-14.625-2.121-21.871c-2.774-19.341-8.646-38.343-17.765-55.643C76.445,108.104,59.201,118.247,65.207,129.639
			L65.207,129.639z"/>
	</g>
</g>
</svg>
