<svg height="100%" width="100%" xmlns="http://www.w3.org/2000/svg" xmlns:svg="http://www.w3.org/2000/svg">
 <title>TODO_V2</title>

 <g class="layer">
  <title>Layer 1</title>
  <g id="svg_12">
   <g id="svg_1">
    <circle id="svg_2" r="115" cy="126.83699" cx="122.79018" fill="#ffff00"/>
    <g id="svg_3">
     <path id="svg_4" d="m229.78718,124.76499c-0.258,43.05 -27.026,82.893 -67.458,98.218c-41.666,15.792 -88.518,3.165 -117.608,-30.167c-28.707,-32.892 -32.458,-82.167 -11.228,-119.881c21.222,-37.7 65.303,-58.795 107.984,-51.833c50.528,8.24 88.004,52.704 88.31,103.663c0.078,12.911 20.082,13.032 20.005,0.145c-0.282,-46.932 -26.901,-90.623 -68.92,-111.793c-42.234,-21.279 -94.829,-16.394 -132.193,12.659c-37.994,29.544 -55.604,77.857 -46.178,124.992c9.11,45.553 45.29,82.562 89.726,94.784c37.082,10.2 78.356,1.919 108.673,-21.655c30.587,-23.784 48.658,-60.19 48.891,-98.988c0.078,-12.919 -19.926,-13.025 -20.004,-0.144z" fill="#0a6034"/>
    </g>
   </g>
   <g id="svg_11">
    <rect ry="20" rx="20" transform="rotate(45 93.88973999023452,167.39416503906247) " stroke-opacity="0" id="svg_9" height="40" width="100" y="147.39416" x="43.88974" stroke-linecap="null" stroke-linejoin="null" stroke-dasharray="null" stroke-width="3" stroke="#000000" fill="#0000ff"/>
    <rect ry="20" rx="20" transform="rotate(-65 147.38973999023438,124.39417266845703) " stroke-opacity="0" id="svg_10" height="40" width="185" y="104.39416" x="54.88974" stroke-linecap="null" stroke-linejoin="null" stroke-dasharray="null" stroke-width="3" stroke="#000000" fill="#0000ff"/>
   </g>
  </g>
 </g>
</svg>